<svg xmlns="http://www.w3.org/2000/svg" xml:space="preserve" xmlns:xlink="http://www.w3.org/1999/xlink" style="max-width: 100%;height: auto;" width="1072.5" height="1494.796875" viewBox="0 0 1072.5 1494.796875">
	<rect width="992.95625" height="992.95625" fill="#ffffff" x="39.6875" y="39.6875" transform="translate(0,153)">
	</rect>
	<g fill="#000000" transform="scale(44.6875)">
		<path transform="scale(0.086)" d="M265.4,42.1h-66.1v-8.7c0-6.4-5.1-11.5-11.5-11.5h-26.4c0-12.1-9.8-21.9-21.9-21.9s-21.9,9.8-21.9,21.9H91.2  c-6.4,0-11.5,5.1-11.5,11.5v8.7H13.8C6.2,42.1,0.1,48.3,0,55.8V375c0,7.6,6.2,13.7,13.7,13.7h251.7c7.6,0,13.7-6.2,13.7-13.7V55.8  C279.1,48.2,272.9,42.1,265.4,42.1z M139.6,11.9c5.6,0,10.1,4.5,10.1,10.1c0,5.6-4.5,10.1-10.1,10.1c-5.6,0-10.1-4.5-10.1-10.1  S134,11.9,139.6,11.9z M267.6,301.1c0,7,-7,7,-7,7H19c-4.1,0-7.4-3.3-7.4-7.4V60c0-4.1,3.3-7.4,5.4-7.4h243.2  c4.1,0,7.4,3.3,7.4,7.4V303.3z">
		</path>
	</g>
	<g transform="translate(0,153)" fill="#000000">
		<g transform="translate(315.25,107.25) scale(4.4633333333333)">
			<path d="M6,6H0V3c0-1.7,1.3-3,3-3l3,0V6z">
			</path>
		</g>
		<g transform="translate(341.25,107.25) scale(4.4633333333333)">
			<path d="M3,6H0V0l3,0c1.7,0,3,1.3,3,3v0C6,4.7,4.7,6,3,6z">
			</path>
		</g>
		<g transform="translate(419.25,107.25) scale(4.4633333333333)">
			<path d="M6,6H0V3c0-1.7,1.3-3,3-3l3,0V6z">
			</path>
		</g>
		<g transform="translate(445.25,107.25) scale(4.4633333333333)">
			<path d="M6,6H0V0l3,0c1.7,0,3,1.3,3,3V6z">
			</path>
		</g>
		<g transform="translate(497.25,107.25) scale(4.4633333333333)">
			<path d="M6,6H3C1.3,6,0,4.7,0,3v0c0-1.7,1.3-3,3-3h3C6,0,6,6,6,6z">
			</path>
		</g>
		<g transform="translate(523.25,107.25) scale(4.4633333333333)">
			<path d="M3,6H0V0l3,0c1.7,0,3,1.3,3,3v0C6,4.7,4.7,6,3,6z">
			</path>
		</g>
		<g transform="translate(653.25,107.25) scale(4.4633333333333)">
			<path d="M6,6H0V3c0-1.7,1.3-3,3-3h0c1.7,0,3,1.3,3,3V6z">
			</path>
		</g>
		<g transform="translate(705.25,107.25) scale(4.4633333333333)">
			<path d="M6,6H3C1.3,6,0,4.7,0,3v0c0-1.7,1.3-3,3-3h3C6,0,6,6,6,6z">
			</path>
		</g>
		<g transform="translate(731.25,107.25) scale(4.4633333333333)">
			<path d="M3,6H0V0l3,0c1.7,0,3,1.3,3,3v0C6,4.7,4.7,6,3,6z">
			</path>
		</g>
		<g transform="translate(315.25,133.25) scale(4.4633333333333)">
			<rect width="6" height="6">
			</rect>
		</g>
		<g transform="translate(419.25,133.25) scale(4.4633333333333)">
			<path d="M6,6H3C1.3,6,0,4.7,0,3V0l6,0V6z">
			</path>
		</g>
		<g transform="translate(445.25,133.25) scale(4.4633333333333)">
			<rect width="6" height="6">
			</rect>
		</g>
		<g transform="translate(601.25,133.25) scale(4.4633333333333)">
			<path d="M6,6H3C1.3,6,0,4.7,0,3v0c0-1.7,1.3-3,3-3h3C6,0,6,6,6,6z">
			</path>
		</g>
		<g transform="translate(627.25,133.25) scale(4.4633333333333)">
			<rect width="6" height="6">
			</rect>
		</g>
		<g transform="translate(653.25,133.25) scale(4.4633333333333)">
			<rect width="6" height="6">
			</rect>
		</g>
		<g transform="translate(679.25,133.25) scale(4.4633333333333)">
			<path d="M3,6H0V0l3,0c1.7,0,3,1.3,3,3v0C6,4.7,4.7,6,3,6z">
			</path>
		</g>
		<g transform="translate(315.25,159.25) scale(4.4633333333333)">
			<path d="M6,6H3C1.3,6,0,4.7,0,3V0l6,0V6z">
			</path>
		</g>
		<g transform="translate(341.25,159.25) scale(4.4633333333333)">
			<path d="M6,6H0V0l3,0c1.7,0,3,1.3,3,3V6z">
			</path>
		</g>
		<g transform="translate(393.25,159.25) scale(4.4633333333333)">
			<circle cx="3" cy="3" r="3">
			</circle>
		</g>
		<g transform="translate(445.25,159.25) scale(4.4633333333333)">
			<path d="M6,6H3C1.3,6,0,4.7,0,3V0l6,0V6z">
			</path>
		</g>
		<g transform="translate(471.25,159.25) scale(4.4633333333333)">
			<rect width="6" height="6">
			</rect>
		</g>
		<g transform="translate(497.25,159.25) scale(4.4633333333333)">
			<path d="M6,6H0V0l3,0c1.7,0,3,1.3,3,3V6z">
			</path>
		</g>
		<g transform="translate(627.25,159.25) scale(4.4633333333333)">
			<path d="M6,6H3C1.3,6,0,4.7,0,3V0l6,0V6z">
			</path>
		</g>
		<g transform="translate(653.25,159.25) scale(4.4633333333333)">
			<path d="M3,6H0V0l6,0v3C6,4.7,4.7,6,3,6z">
			</path>
		</g>
		<g transform="translate(705.25,159.25) scale(4.4633333333333)">
			<path d="M6,6H0V3c0-1.7,1.3-3,3-3h0c1.7,0,3,1.3,3,3V6z">
			</path>
		</g>
		<g transform="translate(341.25,185.25) scale(4.4633333333333)">
			<rect width="6" height="6">
			</rect>
		</g>
		<g transform="translate(367.25,185.25) scale(4.4633333333333)">
			<path d="M3,6H0V0l3,0c1.7,0,3,1.3,3,3v0C6,4.7,4.7,6,3,6z">
			</path>
		</g>
		<g transform="translate(419.25,185.25) scale(4.4633333333333)">
			<circle cx="3" cy="3" r="3">
			</circle>
		</g>
		<g transform="translate(471.25,185.25) scale(4.4633333333333)">
			<path d="M6,6H3C1.3,6,0,4.7,0,3V0l6,0V6z">
			</path>
		</g>
		<g transform="translate(497.25,185.25) scale(4.4633333333333)">
			<path d="M3,6H0V0l6,0v3C6,4.7,4.7,6,3,6z">
			</path>
		</g>
		<g transform="translate(575.25,185.25) scale(4.4633333333333)">
			<path d="M6,6H0V3c0-1.7,1.3-3,3-3l3,0V6z">
			</path>
		</g>
		<g transform="translate(601.25,185.25) scale(4.4633333333333)">
			<path d="M3,6H0V0l3,0c1.7,0,3,1.3,3,3v0C6,4.7,4.7,6,3,6z">
			</path>
		</g>
		<g transform="translate(679.25,185.25) scale(4.4633333333333)">
			<path d="M6,6H0V3c0-1.7,1.3-3,3-3l3,0V6z">
			</path>
		</g>
		<g transform="translate(705.25,185.25) scale(4.4633333333333)">
			<rect width="6" height="6">
			</rect>
		</g>
		<g transform="translate(731.25,185.25) scale(4.4633333333333)">
			<path d="M3,6H0V0l3,0c1.7,0,3,1.3,3,3v0C6,4.7,4.7,6,3,6z">
			</path>
		</g>
		<g transform="translate(341.25,211.25) scale(4.4633333333333)">
			<rect width="6" height="6">
			</rect>
		</g>
		<g transform="translate(523.25,211.25) scale(4.4633333333333)">
			<circle cx="3" cy="3" r="3">
			</circle>
		</g>
		<g transform="translate(575.25,211.25) scale(4.4633333333333)">
			<rect width="6" height="6">
			</rect>
		</g>
		<g transform="translate(653.25,211.25) scale(4.4633333333333)">
			<path d="M6,6H0V3c0-1.7,1.3-3,3-3l3,0V6z">
			</path>
		</g>
		<g transform="translate(679.25,211.25) scale(4.4633333333333)">
			<path d="M3,6H0V0l6,0v3C6,4.7,4.7,6,3,6z">
			</path>
		</g>
		<g transform="translate(315.25,237.25) scale(4.4633333333333)">
			<path d="M6,6H0V3c0-1.7,1.3-3,3-3l3,0V6z">
			</path>
		</g>
		<g transform="translate(341.25,237.25) scale(4.4633333333333)">
			<rect width="6" height="6">
			</rect>
		</g>
		<g transform="translate(367.25,237.25) scale(4.4633333333333)">
			<rect width="6" height="6">
			</rect>
		</g>
		<g transform="translate(393.25,237.25) scale(4.4633333333333)">
			<path d="M3,6H0V0l3,0c1.7,0,3,1.3,3,3v0C6,4.7,4.7,6,3,6z">
			</path>
		</g>
		<g transform="translate(445.25,237.25) scale(4.4633333333333)">
			<path d="M6,6H3C1.3,6,0,4.7,0,3v0c0-1.7,1.3-3,3-3h3C6,0,6,6,6,6z">
			</path>
		</g>
		<g transform="translate(471.25,237.25) scale(4.4633333333333)">
			<rect width="6" height="6">
			</rect>
		</g>
		<g transform="translate(497.25,237.25) scale(4.4633333333333)">
			<path d="M3,6H0V0l3,0c1.7,0,3,1.3,3,3v0C6,4.7,4.7,6,3,6z">
			</path>
		</g>
		<g transform="translate(549.25,237.25) scale(4.4633333333333)">
			<path d="M6,6H3C1.3,6,0,4.7,0,3v0c0-1.7,1.3-3,3-3h3C6,0,6,6,6,6z">
			</path>
		</g>
		<g transform="translate(575.25,237.25) scale(4.4633333333333)">
			<rect width="6" height="6">
			</rect>
		</g>
		<g transform="translate(653.25,237.25) scale(4.4633333333333)">
			<path d="M3,6L3,6C1.3,6,0,4.7,0,3V0h6v3C6,4.7,4.7,6,3,6z">
			</path>
		</g>
		<g transform="translate(705.25,237.25) scale(4.4633333333333)">
			<path d="M6,6H3C1.3,6,0,4.7,0,3v0c0-1.7,1.3-3,3-3h3C6,0,6,6,6,6z">
			</path>
		</g>
		<g transform="translate(731.25,237.25) scale(4.4633333333333)">
			<path d="M6,6H0V0l3,0c1.7,0,3,1.3,3,3V6z">
			</path>
		</g>
		<g transform="translate(315.25,263.25) scale(4.4633333333333)">
			<rect width="6" height="6">
			</rect>
		</g>
		<g transform="translate(367.25,263.25) scale(4.4633333333333)">
			<rect width="6" height="6">
			</rect>
		</g>
		<g transform="translate(419.25,263.25) scale(4.4633333333333)">
			<circle cx="3" cy="3" r="3">
			</circle>
		</g>
		<g transform="translate(471.25,263.25) scale(4.4633333333333)">
			<path d="M3,6L3,6C1.3,6,0,4.7,0,3V0h6v3C6,4.7,4.7,6,3,6z">
			</path>
		</g>
		<g transform="translate(523.25,263.25) scale(4.4633333333333)">
			<circle cx="3" cy="3" r="3">
			</circle>
		</g>
		<g transform="translate(575.25,263.25) scale(4.4633333333333)">
			<path d="M3,6L3,6C1.3,6,0,4.7,0,3V0h6v3C6,4.7,4.7,6,3,6z">
			</path>
		</g>
		<g transform="translate(627.25,263.25) scale(4.4633333333333)">
			<path d="M6,6H0V3c0-1.7,1.3-3,3-3h0c1.7,0,3,1.3,3,3V6z">
			</path>
		</g>
		<g transform="translate(679.25,263.25) scale(4.4633333333333)">
			<path d="M6,6H0V3c0-1.7,1.3-3,3-3h0c1.7,0,3,1.3,3,3V6z">
			</path>
		</g>
		<g transform="translate(731.25,263.25) scale(4.4633333333333)">
			<path d="M3,6L3,6C1.3,6,0,4.7,0,3V0h6v3C6,4.7,4.7,6,3,6z">
			</path>
		</g>
		<g transform="translate(315.25,289.25) scale(4.4633333333333)">
			<rect width="6" height="6">
			</rect>
		</g>
		<g transform="translate(367.25,289.25) scale(4.4633333333333)">
			<rect width="6" height="6">
			</rect>
		</g>
		<g transform="translate(497.25,289.25) scale(4.4633333333333)">
			<circle cx="3" cy="3" r="3">
			</circle>
		</g>
		<g transform="translate(601.25,289.25) scale(4.4633333333333)">
			<path d="M6,6H3C1.3,6,0,4.7,0,3v0c0-1.7,1.3-3,3-3h3C6,0,6,6,6,6z">
			</path>
		</g>
		<g transform="translate(627.25,289.25) scale(4.4633333333333)">
			<rect width="6" height="6">
			</rect>
		</g>
		<g transform="translate(653.25,289.25) scale(4.4633333333333)">
			<rect width="6" height="6">
			</rect>
		</g>
		<g transform="translate(679.25,289.25) scale(4.4633333333333)">
			<rect width="6" height="6">
			</rect>
		</g>
		<g transform="translate(705.25,289.25) scale(4.4633333333333)">
			<path d="M6,6H0V0l3,0c1.7,0,3,1.3,3,3V6z">
			</path>
		</g>
		<g transform="translate(159.25,315.25) scale(4.4633333333333)">
			<path d="M6,6H0V3c0-1.7,1.3-3,3-3l3,0V6z">
			</path>
		</g>
		<g transform="translate(185.25,315.25) scale(4.4633333333333)">
			<rect width="6" height="6">
			</rect>
		</g>
		<g transform="translate(211.25,315.25) scale(4.4633333333333)">
			<path d="M3,6H0V0l3,0c1.7,0,3,1.3,3,3v0C6,4.7,4.7,6,3,6z">
			</path>
		</g>
		<g transform="translate(263.25,315.25) scale(4.4633333333333)">
			<circle cx="3" cy="3" r="3">
			</circle>
		</g>
		<g transform="translate(315.25,315.25) scale(4.4633333333333)">
			<rect width="6" height="6">
			</rect>
		</g>
		<g transform="translate(341.25,315.25) scale(4.4633333333333)">
			<rect width="6" height="6">
			</rect>
		</g>
		<g transform="translate(367.25,315.25) scale(4.4633333333333)">
			<rect width="6" height="6">
			</rect>
		</g>
		<g transform="translate(393.25,315.25) scale(4.4633333333333)">
			<path d="M6,6H0V0l3,0c1.7,0,3,1.3,3,3V6z">
			</path>
		</g>
		<g transform="translate(445.25,315.25) scale(4.4633333333333)">
			<circle cx="3" cy="3" r="3">
			</circle>
		</g>
		<g transform="translate(549.25,315.25) scale(4.4633333333333)">
			<path d="M6,6H0V3c0-1.7,1.3-3,3-3l3,0V6z">
			</path>
		</g>
		<g transform="translate(575.25,315.25) scale(4.4633333333333)">
			<path d="M3,6H0V0l3,0c1.7,0,3,1.3,3,3v0C6,4.7,4.7,6,3,6z">
			</path>
		</g>
		<g transform="translate(627.25,315.25) scale(4.4633333333333)">
			<rect width="6" height="6">
			</rect>
		</g>
		<g transform="translate(679.25,315.25) scale(4.4633333333333)">
			<path d="M6,6H3C1.3,6,0,4.7,0,3V0l6,0V6z">
			</path>
		</g>
		<g transform="translate(705.25,315.25) scale(4.4633333333333)">
			<rect width="6" height="6">
			</rect>
		</g>
		<g transform="translate(731.25,315.25) scale(4.4633333333333)">
			<rect width="6" height="6">
			</rect>
		</g>
		<g transform="translate(757.25,315.25) scale(4.4633333333333)">
			<rect width="6" height="6">
			</rect>
		</g>
		<g transform="translate(783.25,315.25) scale(4.4633333333333)">
			<rect width="6" height="6">
			</rect>
		</g>
		<g transform="translate(809.25,315.25) scale(4.4633333333333)">
			<path d="M3,6H0V0l3,0c1.7,0,3,1.3,3,3v0C6,4.7,4.7,6,3,6z">
			</path>
		</g>
		<g transform="translate(887.25,315.25) scale(4.4633333333333)">
			<path d="M6,6H0V3c0-1.7,1.3-3,3-3l3,0V6z">
			</path>
		</g>
		<g transform="translate(913.25,315.25) scale(4.4633333333333)">
			<rect width="6" height="6">
			</rect>
		</g>
		<g transform="translate(939.25,315.25) scale(4.4633333333333)">
			<path d="M6,6H0V0l3,0c1.7,0,3,1.3,3,3V6z">
			</path>
		</g>
		<g transform="translate(133.25,341.25) scale(4.4633333333333)">
			<path d="M6,6H3C1.3,6,0,4.7,0,3v0c0-1.7,1.3-3,3-3h3C6,0,6,6,6,6z">
			</path>
		</g>
		<g transform="translate(159.25,341.25) scale(4.4633333333333)">
			<path d="M3,6H0V0l6,0v3C6,4.7,4.7,6,3,6z">
			</path>
		</g>
		<g transform="translate(289.25,341.25) scale(4.4633333333333)">
			<path d="M6,6H3C1.3,6,0,4.7,0,3v0c0-1.7,1.3-3,3-3h3C6,0,6,6,6,6z">
			</path>
		</g>
		<g transform="translate(315.25,341.25) scale(4.4633333333333)">
			<rect width="6" height="6">
			</rect>
		</g>
		<g transform="translate(367.25,341.25) scale(4.4633333333333)">
			<rect width="6" height="6">
			</rect>
		</g>
		<g transform="translate(393.25,341.25) scale(4.4633333333333)">
			<rect width="6" height="6">
			</rect>
		</g>
		<g transform="translate(419.25,341.25) scale(4.4633333333333)">
			<path d="M3,6H0V0l3,0c1.7,0,3,1.3,3,3v0C6,4.7,4.7,6,3,6z">
			</path>
		</g>
		<g transform="translate(471.25,341.25) scale(4.4633333333333)">
			<path d="M6,6H0V3c0-1.7,1.3-3,3-3l3,0V6z">
			</path>
		</g>
		<g transform="translate(497.25,341.25) scale(4.4633333333333)">
			<path d="M3,6H0V0l3,0c1.7,0,3,1.3,3,3v0C6,4.7,4.7,6,3,6z">
			</path>
		</g>
		<g transform="translate(549.25,341.25) scale(4.4633333333333)">
			<path d="M3,6L3,6C1.3,6,0,4.7,0,3V0h6v3C6,4.7,4.7,6,3,6z">
			</path>
		</g>
		<g transform="translate(627.25,341.25) scale(4.4633333333333)">
			<rect width="6" height="6">
			</rect>
		</g>
		<g transform="translate(653.25,341.25) scale(4.4633333333333)">
			<path d="M6,6H0V0l3,0c1.7,0,3,1.3,3,3V6z">
			</path>
		</g>
		<g transform="translate(705.25,341.25) scale(4.4633333333333)">
			<path d="M3,6L3,6C1.3,6,0,4.7,0,3V0h6v3C6,4.7,4.7,6,3,6z">
			</path>
		</g>
		<g transform="translate(757.25,341.25) scale(4.4633333333333)">
			<rect width="6" height="6">
			</rect>
		</g>
		<g transform="translate(783.25,341.25) scale(4.4633333333333)">
			<rect width="6" height="6">
			</rect>
		</g>
		<g transform="translate(887.25,341.25) scale(4.4633333333333)">
			<path d="M6,6H3C1.3,6,0,4.7,0,3V0l6,0V6z">
			</path>
		</g>
		<g transform="translate(913.25,341.25) scale(4.4633333333333)">
			<rect width="6" height="6">
			</rect>
		</g>
		<g transform="translate(939.25,341.25) scale(4.4633333333333)">
			<path d="M3,6H0V0l6,0v3C6,4.7,4.7,6,3,6z">
			</path>
		</g>
		<g transform="translate(107.25,367.25) scale(4.4633333333333)">
			<path d="M6,6H0V3c0-1.7,1.3-3,3-3h0c1.7,0,3,1.3,3,3V6z">
			</path>
		</g>
		<g transform="translate(185.25,367.25) scale(4.4633333333333)">
			<circle cx="3" cy="3" r="3">
			</circle>
		</g>
		<g transform="translate(263.25,367.25) scale(4.4633333333333)">
			<circle cx="3" cy="3" r="3">
			</circle>
		</g>
		<g transform="translate(315.25,367.25) scale(4.4633333333333)">
			<rect width="6" height="6">
			</rect>
		</g>
		<g transform="translate(367.25,367.25) scale(4.4633333333333)">
			<path d="M6,6H3C1.3,6,0,4.7,0,3V0l6,0V6z">
			</path>
		</g>
		<g transform="translate(393.25,367.25) scale(4.4633333333333)">
			<path d="M3,6H0V0l6,0v3C6,4.7,4.7,6,3,6z">
			</path>
		</g>
		<g transform="translate(471.25,367.25) scale(4.4633333333333)">
			<path d="M3,6L3,6C1.3,6,0,4.7,0,3V0h6v3C6,4.7,4.7,6,3,6z">
			</path>
		</g>
		<g transform="translate(575.25,367.25) scale(4.4633333333333)">
			<path d="M6,6H0V3c0-1.7,1.3-3,3-3h0c1.7,0,3,1.3,3,3V6z">
			</path>
		</g>
		<g transform="translate(627.25,367.25) scale(4.4633333333333)">
			<path d="M6,6H3C1.3,6,0,4.7,0,3V0l6,0V6z">
			</path>
		</g>
		<g transform="translate(653.25,367.25) scale(4.4633333333333)">
			<rect width="6" height="6">
			</rect>
		</g>
		<g transform="translate(757.25,367.25) scale(4.4633333333333)">
			<path d="M6,6H3C1.3,6,0,4.7,0,3V0l6,0V6z">
			</path>
		</g>
		<g transform="translate(783.25,367.25) scale(4.4633333333333)">
			<rect width="6" height="6">
			</rect>
		</g>
		<g transform="translate(809.25,367.25) scale(4.4633333333333)">
			<path d="M3,6H0V0l3,0c1.7,0,3,1.3,3,3v0C6,4.7,4.7,6,3,6z">
			</path>
		</g>
		<g transform="translate(861.25,367.25) scale(4.4633333333333)">
			<path d="M6,6H0V3c0-1.7,1.3-3,3-3h0c1.7,0,3,1.3,3,3V6z">
			</path>
		</g>
		<g transform="translate(913.25,367.25) scale(4.4633333333333)">
			<rect width="6" height="6">
			</rect>
		</g>
		<g transform="translate(107.25,393.25) scale(4.4633333333333)">
			<path d="M3,6L3,6C1.3,6,0,4.7,0,3V0h6v3C6,4.7,4.7,6,3,6z">
			</path>
		</g>
		<g transform="translate(159.25,393.25) scale(4.4633333333333)">
			<path d="M6,6H0V3c0-1.7,1.3-3,3-3h0c1.7,0,3,1.3,3,3V6z">
			</path>
		</g>
		<g transform="translate(289.25,393.25) scale(4.4633333333333)">
			<path d="M6,6H3C1.3,6,0,4.7,0,3v0c0-1.7,1.3-3,3-3h3C6,0,6,6,6,6z">
			</path>
		</g>
		<g transform="translate(315.25,393.25) scale(4.4633333333333)">
			<path d="M3,6H0V0l6,0v3C6,4.7,4.7,6,3,6z">
			</path>
		</g>
		<g transform="translate(419.25,393.25) scale(4.4633333333333)">
			<circle cx="3" cy="3" r="3">
			</circle>
		</g>
		<g transform="translate(523.25,393.25) scale(4.4633333333333)">
			<circle cx="3" cy="3" r="3">
			</circle>
		</g>
		<g transform="translate(575.25,393.25) scale(4.4633333333333)">
			<rect width="6" height="6">
			</rect>
		</g>
		<g transform="translate(601.25,393.25) scale(4.4633333333333)">
			<path d="M6,6H0V0l3,0c1.7,0,3,1.3,3,3V6z">
			</path>
		</g>
		<g transform="translate(653.25,393.25) scale(4.4633333333333)">
			<rect width="6" height="6">
			</rect>
		</g>
		<g transform="translate(679.25,393.25) scale(4.4633333333333)">
			<rect width="6" height="6">
			</rect>
		</g>
		<g transform="translate(705.25,393.25) scale(4.4633333333333)">
			<rect width="6" height="6">
			</rect>
		</g>
		<g transform="translate(731.25,393.25) scale(4.4633333333333)">
			<path d="M3,6H0V0l3,0c1.7,0,3,1.3,3,3v0C6,4.7,4.7,6,3,6z">
			</path>
		</g>
		<g transform="translate(861.25,393.25) scale(4.4633333333333)">
			<path d="M6,6H3C1.3,6,0,4.7,0,3V0l6,0V6z">
			</path>
		</g>
		<g transform="translate(887.25,393.25) scale(4.4633333333333)">
			<rect width="6" height="6">
			</rect>
		</g>
		<g transform="translate(913.25,393.25) scale(4.4633333333333)">
			<path d="M3,6H0V0l6,0v3C6,4.7,4.7,6,3,6z">
			</path>
		</g>
		<g transform="translate(133.25,419.25) scale(4.4633333333333)">
			<path d="M6,6H0V3c0-1.7,1.3-3,3-3l3,0V6z">
			</path>
		</g>
		<g transform="translate(159.25,419.25) scale(4.4633333333333)">
			<rect width="6" height="6">
			</rect>
		</g>
		<g transform="translate(211.25,419.25) scale(4.4633333333333)">
			<circle cx="3" cy="3" r="3">
			</circle>
		</g>
		<g transform="translate(263.25,419.25) scale(4.4633333333333)">
			<circle cx="3" cy="3" r="3">
			</circle>
		</g>
		<g transform="translate(341.25,419.25) scale(4.4633333333333)">
			<path d="M6,6H0V3c0-1.7,1.3-3,3-3l3,0V6z">
			</path>
		</g>
		<g transform="translate(367.25,419.25) scale(4.4633333333333)">
			<rect width="6" height="6">
			</rect>
		</g>
		<g transform="translate(393.25,419.25) scale(4.4633333333333)">
			<path d="M6,6H0V0l3,0c1.7,0,3,1.3,3,3V6z">
			</path>
		</g>
		<g transform="translate(549.25,419.25) scale(4.4633333333333)">
			<path d="M6,6H3C1.3,6,0,4.7,0,3v0c0-1.7,1.3-3,3-3h3C6,0,6,6,6,6z">
			</path>
		</g>
		<g transform="translate(575.25,419.25) scale(4.4633333333333)">
			<rect width="6" height="6">
			</rect>
		</g>
		<g transform="translate(601.25,419.25) scale(4.4633333333333)">
			<rect width="6" height="6">
			</rect>
		</g>
		<g transform="translate(627.25,419.25) scale(4.4633333333333)">
			<rect width="6" height="6">
			</rect>
		</g>
		<g transform="translate(653.25,419.25) scale(4.4633333333333)">
			<path d="M3,6H0V0l6,0v3C6,4.7,4.7,6,3,6z">
			</path>
		</g>
		<g transform="translate(757.25,419.25) scale(4.4633333333333)">
			<circle cx="3" cy="3" r="3">
			</circle>
		</g>
		<g transform="translate(107.25,445.25) scale(4.4633333333333)">
			<path d="M6,6H0V3c0-1.7,1.3-3,3-3l3,0V6z">
			</path>
		</g>
		<g transform="translate(133.25,445.25) scale(4.4633333333333)">
			<rect width="6" height="6">
			</rect>
		</g>
		<g transform="translate(159.25,445.25) scale(4.4633333333333)">
			<rect width="6" height="6">
			</rect>
		</g>
		<g transform="translate(289.25,445.25) scale(4.4633333333333)">
			<circle cx="3" cy="3" r="3">
			</circle>
		</g>
		<g transform="translate(341.25,445.25) scale(4.4633333333333)">
			<rect width="6" height="6">
			</rect>
		</g>
		<g transform="translate(367.25,445.25) scale(4.4633333333333)">
			<rect width="6" height="6">
			</rect>
		</g>
		<g transform="translate(393.25,445.25) scale(4.4633333333333)">
			<rect width="6" height="6">
			</rect>
		</g>
		<g transform="translate(419.25,445.25) scale(4.4633333333333)">
			<path d="M3,6H0V0l3,0c1.7,0,3,1.3,3,3v0C6,4.7,4.7,6,3,6z">
			</path>
		</g>
		<g transform="translate(679.25,445.25) scale(4.4633333333333)">
			<path d="M6,6H0V3c0-1.7,1.3-3,3-3l3,0V6z">
			</path>
		</g>
		<g transform="translate(705.25,445.25) scale(4.4633333333333)">
			<path d="M3,6H0V0l3,0c1.7,0,3,1.3,3,3v0C6,4.7,4.7,6,3,6z">
			</path>
		</g>
		<g transform="translate(783.25,445.25) scale(4.4633333333333)">
			<path d="M6,6H0V3c0-1.7,1.3-3,3-3l3,0V6z">
			</path>
		</g>
		<g transform="translate(809.25,445.25) scale(4.4633333333333)">
			<path d="M3,6H0V0l3,0c1.7,0,3,1.3,3,3v0C6,4.7,4.7,6,3,6z">
			</path>
		</g>
		<g transform="translate(887.25,445.25) scale(4.4633333333333)">
			<path d="M6,6H0V3c0-1.7,1.3-3,3-3h0c1.7,0,3,1.3,3,3V6z">
			</path>
		</g>
		<g transform="translate(939.25,445.25) scale(4.4633333333333)">
			<circle cx="3" cy="3" r="3">
			</circle>
		</g>
		<g transform="translate(107.25,471.25) scale(4.4633333333333)">
			<rect width="6" height="6">
			</rect>
		</g>
		<g transform="translate(159.25,471.25) scale(4.4633333333333)">
			<path d="M3,6L3,6C1.3,6,0,4.7,0,3V0h6v3C6,4.7,4.7,6,3,6z">
			</path>
		</g>
		<g transform="translate(211.25,471.25) scale(4.4633333333333)">
			<path d="M6,6H0V3c0-1.7,1.3-3,3-3l3,0V6z">
			</path>
		</g>
		<g transform="translate(237.25,471.25) scale(4.4633333333333)">
			<rect width="6" height="6">
			</rect>
		</g>
		<g transform="translate(263.25,471.25) scale(4.4633333333333)">
			<path d="M3,6H0V0l3,0c1.7,0,3,1.3,3,3v0C6,4.7,4.7,6,3,6z">
			</path>
		</g>
		<g transform="translate(315.25,471.25) scale(4.4633333333333)">
			<path d="M6,6H3C1.3,6,0,4.7,0,3v0c0-1.7,1.3-3,3-3h3C6,0,6,6,6,6z">
			</path>
		</g>
		<g transform="translate(341.25,471.25) scale(4.4633333333333)">
			<rect width="6" height="6">
			</rect>
		</g>
		<g transform="translate(393.25,471.25) scale(4.4633333333333)">
			<path d="M3,6L3,6C1.3,6,0,4.7,0,3V0h6v3C6,4.7,4.7,6,3,6z">
			</path>
		</g>
		<g transform="translate(445.25,471.25) scale(4.4633333333333)">
			<circle cx="3" cy="3" r="3">
			</circle>
		</g>
		<g transform="translate(497.25,471.25) scale(4.4633333333333)">
			<circle cx="3" cy="3" r="3">
			</circle>
		</g>
		<g transform="translate(601.25,471.25) scale(4.4633333333333)">
			<circle cx="3" cy="3" r="3">
			</circle>
		</g>
		<g transform="translate(679.25,471.25) scale(4.4633333333333)">
			<rect width="6" height="6">
			</rect>
		</g>
		<g transform="translate(757.25,471.25) scale(4.4633333333333)">
			<path d="M6,6H3C1.3,6,0,4.7,0,3v0c0-1.7,1.3-3,3-3h3C6,0,6,6,6,6z">
			</path>
		</g>
		<g transform="translate(783.25,471.25) scale(4.4633333333333)">
			<path d="M3,6H0V0l6,0v3C6,4.7,4.7,6,3,6z">
			</path>
		</g>
		<g transform="translate(861.25,471.25) scale(4.4633333333333)">
			<path d="M6,6H3C1.3,6,0,4.7,0,3v0c0-1.7,1.3-3,3-3h3C6,0,6,6,6,6z">
			</path>
		</g>
		<g transform="translate(887.25,471.25) scale(4.4633333333333)">
			<rect width="6" height="6">
			</rect>
		</g>
		<g transform="translate(913.25,471.25) scale(4.4633333333333)">
			<path d="M6,6H0V0l3,0c1.7,0,3,1.3,3,3V6z">
			</path>
		</g>
		<g transform="translate(107.25,497.25) scale(4.4633333333333)">
			<path d="M6,6H3C1.3,6,0,4.7,0,3V0l6,0V6z">
			</path>
		</g>
		<g transform="translate(133.25,497.25) scale(4.4633333333333)">
			<path d="M6,6H0V0l3,0c1.7,0,3,1.3,3,3V6z">
			</path>
		</g>
		<g transform="translate(211.25,497.25) scale(4.4633333333333)">
			<rect width="6" height="6">
			</rect>
		</g>
		<g transform="translate(289.25,497.25) scale(4.4633333333333)">
			<path d="M6,6H0V3c0-1.7,1.3-3,3-3h0c1.7,0,3,1.3,3,3V6z">
			</path>
		</g>
		<g transform="translate(341.25,497.25) scale(4.4633333333333)">
			<path d="M6,6H3C1.3,6,0,4.7,0,3V0l6,0V6z">
			</path>
		</g>
		<g transform="translate(367.25,497.25) scale(4.4633333333333)">
			<path d="M3,6H0V0l3,0c1.7,0,3,1.3,3,3v0C6,4.7,4.7,6,3,6z">
			</path>
		</g>
		<g transform="translate(471.25,497.25) scale(4.4633333333333)">
			<path d="M6,6H0V3c0-1.7,1.3-3,3-3h0c1.7,0,3,1.3,3,3V6z">
			</path>
		</g>
		<g transform="translate(523.25,497.25) scale(4.4633333333333)">
			<circle cx="3" cy="3" r="3">
			</circle>
		</g>
		<g transform="translate(627.25,497.25) scale(4.4633333333333)">
			<path d="M6,6H3C1.3,6,0,4.7,0,3v0c0-1.7,1.3-3,3-3h3C6,0,6,6,6,6z">
			</path>
		</g>
		<g transform="translate(653.25,497.25) scale(4.4633333333333)">
			<rect width="6" height="6">
			</rect>
		</g>
		<g transform="translate(679.25,497.25) scale(4.4633333333333)">
			<rect width="6" height="6">
			</rect>
		</g>
		<g transform="translate(809.25,497.25) scale(4.4633333333333)">
			<path d="M6,6H0V3c0-1.7,1.3-3,3-3h0c1.7,0,3,1.3,3,3V6z">
			</path>
		</g>
		<g transform="translate(887.25,497.25) scale(4.4633333333333)">
			<rect width="6" height="6">
			</rect>
		</g>
		<g transform="translate(913.25,497.25) scale(4.4633333333333)">
			<path d="M3,6H0V0l6,0v3C6,4.7,4.7,6,3,6z">
			</path>
		</g>
		<g transform="translate(133.25,523.25) scale(4.4633333333333)">
			<rect width="6" height="6">
			</rect>
		</g>
		<g transform="translate(159.25,523.25) scale(4.4633333333333)">
			<path d="M3,6H0V0l3,0c1.7,0,3,1.3,3,3v0C6,4.7,4.7,6,3,6z">
			</path>
		</g>
		<g transform="translate(211.25,523.25) scale(4.4633333333333)">
			<rect width="6" height="6">
			</rect>
		</g>
		<g transform="translate(237.25,523.25) scale(4.4633333333333)">
			<rect width="6" height="6">
			</rect>
		</g>
		<g transform="translate(263.25,523.25) scale(4.4633333333333)">
			<rect width="6" height="6">
			</rect>
		</g>
		<g transform="translate(289.25,523.25) scale(4.4633333333333)">
			<path d="M3,6H0V0l6,0v3C6,4.7,4.7,6,3,6z">
			</path>
		</g>
		<g transform="translate(393.25,523.25) scale(4.4633333333333)">
			<path d="M6,6H0V3c0-1.7,1.3-3,3-3h0c1.7,0,3,1.3,3,3V6z">
			</path>
		</g>
		<g transform="translate(471.25,523.25) scale(4.4633333333333)">
			<rect width="6" height="6">
			</rect>
		</g>
		<g transform="translate(549.25,523.25) scale(4.4633333333333)">
			<path d="M6,6H0V3c0-1.7,1.3-3,3-3l3,0V6z">
			</path>
		</g>
		<g transform="translate(575.25,523.25) scale(4.4633333333333)">
			<path d="M6,6H0V0l3,0c1.7,0,3,1.3,3,3V6z">
			</path>
		</g>
		<g transform="translate(679.25,523.25) scale(4.4633333333333)">
			<path d="M6,6H3C1.3,6,0,4.7,0,3V0l6,0V6z">
			</path>
		</g>
		<g transform="translate(705.25,523.25) scale(4.4633333333333)">
			<rect width="6" height="6">
			</rect>
		</g>
		<g transform="translate(731.25,523.25) scale(4.4633333333333)">
			<rect width="6" height="6">
			</rect>
		</g>
		<g transform="translate(757.25,523.25) scale(4.4633333333333)">
			<path d="M3,6H0V0l3,0c1.7,0,3,1.3,3,3v0C6,4.7,4.7,6,3,6z">
			</path>
		</g>
		<g transform="translate(809.25,523.25) scale(4.4633333333333)">
			<path d="M6,6H3C1.3,6,0,4.7,0,3V0l6,0V6z">
			</path>
		</g>
		<g transform="translate(835.25,523.25) scale(4.4633333333333)">
			<rect width="6" height="6">
			</rect>
		</g>
		<g transform="translate(861.25,523.25) scale(4.4633333333333)">
			<rect width="6" height="6">
			</rect>
		</g>
		<g transform="translate(887.25,523.25) scale(4.4633333333333)">
			<path d="M3,6H0V0l6,0v3C6,4.7,4.7,6,3,6z">
			</path>
		</g>
		<g transform="translate(939.25,523.25) scale(4.4633333333333)">
			<circle cx="3" cy="3" r="3">
			</circle>
		</g>
		<g transform="translate(107.25,549.25) scale(4.4633333333333)">
			<path d="M6,6H3C1.3,6,0,4.7,0,3v0c0-1.7,1.3-3,3-3h3C6,0,6,6,6,6z">
			</path>
		</g>
		<g transform="translate(133.25,549.25) scale(4.4633333333333)">
			<rect width="6" height="6">
			</rect>
		</g>
		<g transform="translate(211.25,549.25) scale(4.4633333333333)">
			<rect width="6" height="6">
			</rect>
		</g>
		<g transform="translate(341.25,549.25) scale(4.4633333333333)">
			<path d="M6,6H0V3c0-1.7,1.3-3,3-3l3,0V6z">
			</path>
		</g>
		<g transform="translate(367.25,549.25) scale(4.4633333333333)">
			<rect width="6" height="6">
			</rect>
		</g>
		<g transform="translate(393.25,549.25) scale(4.4633333333333)">
			<rect width="6" height="6">
			</rect>
		</g>
		<g transform="translate(419.25,549.25) scale(4.4633333333333)">
			<path d="M6,6H0V0l3,0c1.7,0,3,1.3,3,3V6z">
			</path>
		</g>
		<g transform="translate(471.25,549.25) scale(4.4633333333333)">
			<rect width="6" height="6">
			</rect>
		</g>
		<g transform="translate(523.25,549.25) scale(4.4633333333333)">
			<path d="M6,6H3C1.3,6,0,4.7,0,3v0c0-1.7,1.3-3,3-3h3C6,0,6,6,6,6z">
			</path>
		</g>
		<g transform="translate(549.25,549.25) scale(4.4633333333333)">
			<rect width="6" height="6">
			</rect>
		</g>
		<g transform="translate(575.25,549.25) scale(4.4633333333333)">
			<path d="M3,6H0V0l6,0v3C6,4.7,4.7,6,3,6z">
			</path>
		</g>
		<g transform="translate(627.25,549.25) scale(4.4633333333333)">
			<path d="M6,6H0V3c0-1.7,1.3-3,3-3l3,0V6z">
			</path>
		</g>
		<g transform="translate(653.25,549.25) scale(4.4633333333333)">
			<path d="M3,6H0V0l3,0c1.7,0,3,1.3,3,3v0C6,4.7,4.7,6,3,6z">
			</path>
		</g>
		<g transform="translate(705.25,549.25) scale(4.4633333333333)">
			<path d="M6,6H3C1.3,6,0,4.7,0,3V0l6,0V6z">
			</path>
		</g>
		<g transform="translate(731.25,549.25) scale(4.4633333333333)">
			<rect width="6" height="6">
			</rect>
		</g>
		<g transform="translate(783.25,549.25) scale(4.4633333333333)">
			<path d="M6,6H0V3c0-1.7,1.3-3,3-3h0c1.7,0,3,1.3,3,3V6z">
			</path>
		</g>
		<g transform="translate(133.25,575.25) scale(4.4633333333333)">
			<rect width="6" height="6">
			</rect>
		</g>
		<g transform="translate(211.25,575.25) scale(4.4633333333333)">
			<rect width="6" height="6">
			</rect>
		</g>
		<g transform="translate(263.25,575.25) scale(4.4633333333333)">
			<circle cx="3" cy="3" r="3">
			</circle>
		</g>
		<g transform="translate(315.25,575.25) scale(4.4633333333333)">
			<path d="M6,6H3C1.3,6,0,4.7,0,3v0c0-1.7,1.3-3,3-3h3C6,0,6,6,6,6z">
			</path>
		</g>
		<g transform="translate(341.25,575.25) scale(4.4633333333333)">
			<path d="M3,6H0V0l6,0v3C6,4.7,4.7,6,3,6z">
			</path>
		</g>
		<g transform="translate(419.25,575.25) scale(4.4633333333333)">
			<path d="M3,6L3,6C1.3,6,0,4.7,0,3V0h6v3C6,4.7,4.7,6,3,6z">
			</path>
		</g>
		<g transform="translate(471.25,575.25) scale(4.4633333333333)">
			<path d="M3,6L3,6C1.3,6,0,4.7,0,3V0h6v3C6,4.7,4.7,6,3,6z">
			</path>
		</g>
		<g transform="translate(601.25,575.25) scale(4.4633333333333)">
			<path d="M6,6H0V3c0-1.7,1.3-3,3-3l3,0V6z">
			</path>
		</g>
		<g transform="translate(627.25,575.25) scale(4.4633333333333)">
			<path d="M3,6H0V0l6,0v3C6,4.7,4.7,6,3,6z">
			</path>
		</g>
		<g transform="translate(731.25,575.25) scale(4.4633333333333)">
			<rect width="6" height="6">
			</rect>
		</g>
		<g transform="translate(757.25,575.25) scale(4.4633333333333)">
			<rect width="6" height="6">
			</rect>
		</g>
		<g transform="translate(783.25,575.25) scale(4.4633333333333)">
			<rect width="6" height="6">
			</rect>
		</g>
		<g transform="translate(809.25,575.25) scale(4.4633333333333)">
			<rect width="6" height="6">
			</rect>
		</g>
		<g transform="translate(835.25,575.25) scale(4.4633333333333)">
			<path d="M6,6H0V0l3,0c1.7,0,3,1.3,3,3V6z">
			</path>
		</g>
		<g transform="translate(887.25,575.25) scale(4.4633333333333)">
			<path d="M6,6H0V3c0-1.7,1.3-3,3-3l3,0V6z">
			</path>
		</g>
		<g transform="translate(913.25,575.25) scale(4.4633333333333)">
			<rect width="6" height="6">
			</rect>
		</g>
		<g transform="translate(939.25,575.25) scale(4.4633333333333)">
			<path d="M6,6H0V0l3,0c1.7,0,3,1.3,3,3V6z">
			</path>
		</g>
		<g transform="translate(133.25,601.25) scale(4.4633333333333)">
			<rect width="6" height="6">
			</rect>
		</g>
		<g transform="translate(159.25,601.25) scale(4.4633333333333)">
			<path d="M3,6H0V0l3,0c1.7,0,3,1.3,3,3v0C6,4.7,4.7,6,3,6z">
			</path>
		</g>
		<g transform="translate(211.25,601.25) scale(4.4633333333333)">
			<path d="M3,6L3,6C1.3,6,0,4.7,0,3V0h6v3C6,4.7,4.7,6,3,6z">
			</path>
		</g>
		<g transform="translate(289.25,601.25) scale(4.4633333333333)">
			<path d="M6,6H0V3c0-1.7,1.3-3,3-3h0c1.7,0,3,1.3,3,3V6z">
			</path>
		</g>
		<g transform="translate(393.25,601.25) scale(4.4633333333333)">
			<path d="M6,6H0V3c0-1.7,1.3-3,3-3h0c1.7,0,3,1.3,3,3V6z">
			</path>
		</g>
		<g transform="translate(445.25,601.25) scale(4.4633333333333)">
			<circle cx="3" cy="3" r="3">
			</circle>
		</g>
		<g transform="translate(497.25,601.25) scale(4.4633333333333)">
			<path d="M6,6H0V3c0-1.7,1.3-3,3-3l3,0V6z">
			</path>
		</g>
		<g transform="translate(523.25,601.25) scale(4.4633333333333)">
			<path d="M3,6H0V0l3,0c1.7,0,3,1.3,3,3v0C6,4.7,4.7,6,3,6z">
			</path>
		</g>
		<g transform="translate(601.25,601.25) scale(4.4633333333333)">
			<rect width="6" height="6">
			</rect>
		</g>
		<g transform="translate(653.25,601.25) scale(4.4633333333333)">
			<circle cx="3" cy="3" r="3">
			</circle>
		</g>
		<g transform="translate(705.25,601.25) scale(4.4633333333333)">
			<path d="M6,6H0V3c0-1.7,1.3-3,3-3l3,0V6z">
			</path>
		</g>
		<g transform="translate(731.25,601.25) scale(4.4633333333333)">
			<path d="M3,6H0V0l6,0v3C6,4.7,4.7,6,3,6z">
			</path>
		</g>
		<g transform="translate(783.25,601.25) scale(4.4633333333333)">
			<rect width="6" height="6">
			</rect>
		</g>
		<g transform="translate(835.25,601.25) scale(4.4633333333333)">
			<rect width="6" height="6">
			</rect>
		</g>
		<g transform="translate(861.25,601.25) scale(4.4633333333333)">
			<rect width="6" height="6">
			</rect>
		</g>
		<g transform="translate(887.25,601.25) scale(4.4633333333333)">
			<path d="M3,6H0V0l6,0v3C6,4.7,4.7,6,3,6z">
			</path>
		</g>
		<g transform="translate(939.25,601.25) scale(4.4633333333333)">
			<rect width="6" height="6">
			</rect>
		</g>
		<g transform="translate(133.25,627.25) scale(4.4633333333333)">
			<path d="M3,6L3,6C1.3,6,0,4.7,0,3V0h6v3C6,4.7,4.7,6,3,6z">
			</path>
		</g>
		<g transform="translate(263.25,627.25) scale(4.4633333333333)">
			<path d="M6,6H3C1.3,6,0,4.7,0,3v0c0-1.7,1.3-3,3-3h3C6,0,6,6,6,6z">
			</path>
		</g>
		<g transform="translate(289.25,627.25) scale(4.4633333333333)">
			<rect width="6" height="6">
			</rect>
		</g>
		<g transform="translate(315.25,627.25) scale(4.4633333333333)">
			<path d="M6,6H0V0l3,0c1.7,0,3,1.3,3,3V6z">
			</path>
		</g>
		<g transform="translate(393.25,627.25) scale(4.4633333333333)">
			<rect width="6" height="6">
			</rect>
		</g>
		<g transform="translate(471.25,627.25) scale(4.4633333333333)">
			<path d="M6,6H3C1.3,6,0,4.7,0,3v0c0-1.7,1.3-3,3-3h3C6,0,6,6,6,6z">
			</path>
		</g>
		<g transform="translate(497.25,627.25) scale(4.4633333333333)">
			<path d="M3,6H0V0l6,0v3C6,4.7,4.7,6,3,6z">
			</path>
		</g>
		<g transform="translate(601.25,627.25) scale(4.4633333333333)">
			<path d="M3,6L3,6C1.3,6,0,4.7,0,3V0h6v3C6,4.7,4.7,6,3,6z">
			</path>
		</g>
		<g transform="translate(679.25,627.25) scale(4.4633333333333)">
			<path d="M6,6H3C1.3,6,0,4.7,0,3v0c0-1.7,1.3-3,3-3h3C6,0,6,6,6,6z">
			</path>
		</g>
		<g transform="translate(705.25,627.25) scale(4.4633333333333)">
			<path d="M3,6H0V0l6,0v3C6,4.7,4.7,6,3,6z">
			</path>
		</g>
		<g transform="translate(757.25,627.25) scale(4.4633333333333)">
			<path d="M6,6H3C1.3,6,0,4.7,0,3v0c0-1.7,1.3-3,3-3h3C6,0,6,6,6,6z">
			</path>
		</g>
		<g transform="translate(783.25,627.25) scale(4.4633333333333)">
			<rect width="6" height="6">
			</rect>
		</g>
		<g transform="translate(809.25,627.25) scale(4.4633333333333)">
			<rect width="6" height="6">
			</rect>
		</g>
		<g transform="translate(835.25,627.25) scale(4.4633333333333)">
			<rect width="6" height="6">
			</rect>
		</g>
		<g transform="translate(861.25,627.25) scale(4.4633333333333)">
			<path d="M3,6H0V0l6,0v3C6,4.7,4.7,6,3,6z">
			</path>
		</g>
		<g transform="translate(913.25,627.25) scale(4.4633333333333)">
			<path d="M6,6H3C1.3,6,0,4.7,0,3v0c0-1.7,1.3-3,3-3h3C6,0,6,6,6,6z">
			</path>
		</g>
		<g transform="translate(939.25,627.25) scale(4.4633333333333)">
			<rect width="6" height="6">
			</rect>
		</g>
		<g transform="translate(107.25,653.25) scale(4.4633333333333)">
			<path d="M6,6H0V3c0-1.7,1.3-3,3-3h0c1.7,0,3,1.3,3,3V6z">
			</path>
		</g>
		<g transform="translate(159.25,653.25) scale(4.4633333333333)">
			<path d="M6,6H0V3c0-1.7,1.3-3,3-3l3,0V6z">
			</path>
		</g>
		<g transform="translate(185.25,653.25) scale(4.4633333333333)">
			<rect width="6" height="6">
			</rect>
		</g>
		<g transform="translate(211.25,653.25) scale(4.4633333333333)">
			<rect width="6" height="6">
			</rect>
		</g>
		<g transform="translate(237.25,653.25) scale(4.4633333333333)">
			<path d="M3,6H0V0l3,0c1.7,0,3,1.3,3,3v0C6,4.7,4.7,6,3,6z">
			</path>
		</g>
		<g transform="translate(315.25,653.25) scale(4.4633333333333)">
			<rect width="6" height="6">
			</rect>
		</g>
		<g transform="translate(393.25,653.25) scale(4.4633333333333)">
			<path d="M6,6H3C1.3,6,0,4.7,0,3V0l6,0V6z">
			</path>
		</g>
		<g transform="translate(419.25,653.25) scale(4.4633333333333)">
			<rect width="6" height="6">
			</rect>
		</g>
		<g transform="translate(445.25,653.25) scale(4.4633333333333)">
			<path d="M3,6H0V0l3,0c1.7,0,3,1.3,3,3v0C6,4.7,4.7,6,3,6z">
			</path>
		</g>
		<g transform="translate(575.25,653.25) scale(4.4633333333333)">
			<path d="M6,6H0V3c0-1.7,1.3-3,3-3h0c1.7,0,3,1.3,3,3V6z">
			</path>
		</g>
		<g transform="translate(627.25,653.25) scale(4.4633333333333)">
			<path d="M6,6H0V3c0-1.7,1.3-3,3-3h0c1.7,0,3,1.3,3,3V6z">
			</path>
		</g>
		<g transform="translate(731.25,653.25) scale(4.4633333333333)">
			<circle cx="3" cy="3" r="3">
			</circle>
		</g>
		<g transform="translate(887.25,653.25) scale(4.4633333333333)">
			<circle cx="3" cy="3" r="3">
			</circle>
		</g>
		<g transform="translate(939.25,653.25) scale(4.4633333333333)">
			<path d="M3,6L3,6C1.3,6,0,4.7,0,3V0h6v3C6,4.7,4.7,6,3,6z">
			</path>
		</g>
		<g transform="translate(107.25,679.25) scale(4.4633333333333)">
			<rect width="6" height="6">
			</rect>
		</g>
		<g transform="translate(159.25,679.25) scale(4.4633333333333)">
			<rect width="6" height="6">
			</rect>
		</g>
		<g transform="translate(211.25,679.25) scale(4.4633333333333)">
			<rect width="6" height="6">
			</rect>
		</g>
		<g transform="translate(263.25,679.25) scale(4.4633333333333)">
			<circle cx="3" cy="3" r="3">
			</circle>
		</g>
		<g transform="translate(315.25,679.25) scale(4.4633333333333)">
			<path d="M3,6L3,6C1.3,6,0,4.7,0,3V0h6v3C6,4.7,4.7,6,3,6z">
			</path>
		</g>
		<g transform="translate(419.25,679.25) scale(4.4633333333333)">
			<path d="M3,6L3,6C1.3,6,0,4.7,0,3V0h6v3C6,4.7,4.7,6,3,6z">
			</path>
		</g>
		<g transform="translate(471.25,679.25) scale(4.4633333333333)">
			<circle cx="3" cy="3" r="3">
			</circle>
		</g>
		<g transform="translate(523.25,679.25) scale(4.4633333333333)">
			<circle cx="3" cy="3" r="3">
			</circle>
		</g>
		<g transform="translate(575.25,679.25) scale(4.4633333333333)">
			<rect width="6" height="6">
			</rect>
		</g>
		<g transform="translate(627.25,679.25) scale(4.4633333333333)">
			<rect width="6" height="6">
			</rect>
		</g>
		<g transform="translate(653.25,679.25) scale(4.4633333333333)">
			<rect width="6" height="6">
			</rect>
		</g>
		<g transform="translate(679.25,679.25) scale(4.4633333333333)">
			<path d="M3,6H0V0l3,0c1.7,0,3,1.3,3,3v0C6,4.7,4.7,6,3,6z">
			</path>
		</g>
		<g transform="translate(809.25,679.25) scale(4.4633333333333)">
			<path d="M6,6H0V3c0-1.7,1.3-3,3-3l3,0V6z">
			</path>
		</g>
		<g transform="translate(835.25,679.25) scale(4.4633333333333)">
			<path d="M3,6H0V0l3,0c1.7,0,3,1.3,3,3v0C6,4.7,4.7,6,3,6z">
			</path>
		</g>
		<g transform="translate(913.25,679.25) scale(4.4633333333333)">
			<path d="M6,6H0V3c0-1.7,1.3-3,3-3h0c1.7,0,3,1.3,3,3V6z">
			</path>
		</g>
		<g transform="translate(107.25,705.25) scale(4.4633333333333)">
			<rect width="6" height="6">
			</rect>
		</g>
		<g transform="translate(159.25,705.25) scale(4.4633333333333)">
			<rect width="6" height="6">
			</rect>
		</g>
		<g transform="translate(185.25,705.25) scale(4.4633333333333)">
			<rect width="6" height="6">
			</rect>
		</g>
		<g transform="translate(211.25,705.25) scale(4.4633333333333)">
			<rect width="6" height="6">
			</rect>
		</g>
		<g transform="translate(289.25,705.25) scale(4.4633333333333)">
			<circle cx="3" cy="3" r="3">
			</circle>
		</g>
		<g transform="translate(367.25,705.25) scale(4.4633333333333)">
			<path d="M6,6H0V3c0-1.7,1.3-3,3-3h0c1.7,0,3,1.3,3,3V6z">
			</path>
		</g>
		<g transform="translate(575.25,705.25) scale(4.4633333333333)">
			<path d="M6,6H3C1.3,6,0,4.7,0,3V0l6,0V6z">
			</path>
		</g>
		<g transform="translate(601.25,705.25) scale(4.4633333333333)">
			<rect width="6" height="6">
			</rect>
		</g>
		<g transform="translate(627.25,705.25) scale(4.4633333333333)">
			<rect width="6" height="6">
			</rect>
		</g>
		<g transform="translate(653.25,705.25) scale(4.4633333333333)">
			<rect width="6" height="6">
			</rect>
		</g>
		<g transform="translate(731.25,705.25) scale(4.4633333333333)">
			<path d="M6,6H0V3c0-1.7,1.3-3,3-3h0c1.7,0,3,1.3,3,3V6z">
			</path>
		</g>
		<g transform="translate(809.25,705.25) scale(4.4633333333333)">
			<rect width="6" height="6">
			</rect>
		</g>
		<g transform="translate(861.25,705.25) scale(4.4633333333333)">
			<path d="M6,6H3C1.3,6,0,4.7,0,3v0c0-1.7,1.3-3,3-3h3C6,0,6,6,6,6z">
			</path>
		</g>
		<g transform="translate(887.25,705.25) scale(4.4633333333333)">
			<rect width="6" height="6">
			</rect>
		</g>
		<g transform="translate(913.25,705.25) scale(4.4633333333333)">
			<path d="M3,6H0V0l6,0v3C6,4.7,4.7,6,3,6z">
			</path>
		</g>
		<g transform="translate(107.25,731.25) scale(4.4633333333333)">
			<path d="M3,6L3,6C1.3,6,0,4.7,0,3V0h6v3C6,4.7,4.7,6,3,6z">
			</path>
		</g>
		<g transform="translate(159.25,731.25) scale(4.4633333333333)">
			<path d="M3,6L3,6C1.3,6,0,4.7,0,3V0h6v3C6,4.7,4.7,6,3,6z">
			</path>
		</g>
		<g transform="translate(211.25,731.25) scale(4.4633333333333)">
			<path d="M3,6L3,6C1.3,6,0,4.7,0,3V0h6v3C6,4.7,4.7,6,3,6z">
			</path>
		</g>
		<g transform="translate(263.25,731.25) scale(4.4633333333333)">
			<circle cx="3" cy="3" r="3">
			</circle>
		</g>
		<g transform="translate(367.25,731.25) scale(4.4633333333333)">
			<path d="M3,6L3,6C1.3,6,0,4.7,0,3V0h6v3C6,4.7,4.7,6,3,6z">
			</path>
		</g>
		<g transform="translate(419.25,731.25) scale(4.4633333333333)">
			<circle cx="3" cy="3" r="3">
			</circle>
		</g>
		<g transform="translate(471.25,731.25) scale(4.4633333333333)">
			<path d="M6,6H0V3c0-1.7,1.3-3,3-3l3,0V6z">
			</path>
		</g>
		<g transform="translate(497.25,731.25) scale(4.4633333333333)">
			<rect width="6" height="6">
			</rect>
		</g>
		<g transform="translate(523.25,731.25) scale(4.4633333333333)">
			<rect width="6" height="6">
			</rect>
		</g>
		<g transform="translate(549.25,731.25) scale(4.4633333333333)">
			<path d="M3,6H0V0l3,0c1.7,0,3,1.3,3,3v0C6,4.7,4.7,6,3,6z">
			</path>
		</g>
		<g transform="translate(627.25,731.25) scale(4.4633333333333)">
			<rect width="6" height="6">
			</rect>
		</g>
		<g transform="translate(653.25,731.25) scale(4.4633333333333)">
			<path d="M3,6H0V0l6,0v3C6,4.7,4.7,6,3,6z">
			</path>
		</g>
		<g transform="translate(731.25,731.25) scale(4.4633333333333)">
			<rect width="6" height="6">
			</rect>
		</g>
		<g transform="translate(757.25,731.25) scale(4.4633333333333)">
			<rect width="6" height="6">
			</rect>
		</g>
		<g transform="translate(783.25,731.25) scale(4.4633333333333)">
			<rect width="6" height="6">
			</rect>
		</g>
		<g transform="translate(809.25,731.25) scale(4.4633333333333)">
			<rect width="6" height="6">
			</rect>
		</g>
		<g transform="translate(835.25,731.25) scale(4.4633333333333)">
			<path d="M6,6H0V0l3,0c1.7,0,3,1.3,3,3V6z">
			</path>
		</g>
		<g transform="translate(315.25,757.25) scale(4.4633333333333)">
			<path d="M6,6H3C1.3,6,0,4.7,0,3v0c0-1.7,1.3-3,3-3h3C6,0,6,6,6,6z">
			</path>
		</g>
		<g transform="translate(341.25,757.25) scale(4.4633333333333)">
			<path d="M3,6H0V0l3,0c1.7,0,3,1.3,3,3v0C6,4.7,4.7,6,3,6z">
			</path>
		</g>
		<g transform="translate(471.25,757.25) scale(4.4633333333333)">
			<rect width="6" height="6">
			</rect>
		</g>
		<g transform="translate(523.25,757.25) scale(4.4633333333333)">
			<path d="M3,6L3,6C1.3,6,0,4.7,0,3V0h6v3C6,4.7,4.7,6,3,6z">
			</path>
		</g>
		<g transform="translate(575.25,757.25) scale(4.4633333333333)">
			<path d="M6,6H0V3c0-1.7,1.3-3,3-3h0c1.7,0,3,1.3,3,3V6z">
			</path>
		</g>
		<g transform="translate(627.25,757.25) scale(4.4633333333333)">
			<path d="M3,6L3,6C1.3,6,0,4.7,0,3V0h6v3C6,4.7,4.7,6,3,6z">
			</path>
		</g>
		<g transform="translate(731.25,757.25) scale(4.4633333333333)">
			<rect width="6" height="6">
			</rect>
		</g>
		<g transform="translate(835.25,757.25) scale(4.4633333333333)">
			<rect width="6" height="6">
			</rect>
		</g>
		<g transform="translate(939.25,757.25) scale(4.4633333333333)">
			<circle cx="3" cy="3" r="3">
			</circle>
		</g>
		<g transform="translate(419.25,783.25) scale(4.4633333333333)">
			<path d="M6,6H0V3c0-1.7,1.3-3,3-3l3,0V6z">
			</path>
		</g>
		<g transform="translate(445.25,783.25) scale(4.4633333333333)">
			<rect width="6" height="6">
			</rect>
		</g>
		<g transform="translate(471.25,783.25) scale(4.4633333333333)">
			<rect width="6" height="6">
			</rect>
		</g>
		<g transform="translate(497.25,783.25) scale(4.4633333333333)">
			<path d="M3,6H0V0l3,0c1.7,0,3,1.3,3,3v0C6,4.7,4.7,6,3,6z">
			</path>
		</g>
		<g transform="translate(575.25,783.25) scale(4.4633333333333)">
			<path d="M6,6H3C1.3,6,0,4.7,0,3V0l6,0V6z">
			</path>
		</g>
		<g transform="translate(601.25,783.25) scale(4.4633333333333)">
			<path d="M6,6H0V0l3,0c1.7,0,3,1.3,3,3V6z">
			</path>
		</g>
		<g transform="translate(679.25,783.25) scale(4.4633333333333)">
			<path d="M6,6H3C1.3,6,0,4.7,0,3v0c0-1.7,1.3-3,3-3h3C6,0,6,6,6,6z">
			</path>
		</g>
		<g transform="translate(705.25,783.25) scale(4.4633333333333)">
			<rect width="6" height="6">
			</rect>
		</g>
		<g transform="translate(731.25,783.25) scale(4.4633333333333)">
			<rect width="6" height="6">
			</rect>
		</g>
		<g transform="translate(783.25,783.25) scale(4.4633333333333)">
			<circle cx="3" cy="3" r="3">
			</circle>
		</g>
		<g transform="translate(835.25,783.25) scale(4.4633333333333)">
			<rect width="6" height="6">
			</rect>
		</g>
		<g transform="translate(861.25,783.25) scale(4.4633333333333)">
			<path d="M3,6H0V0l3,0c1.7,0,3,1.3,3,3v0C6,4.7,4.7,6,3,6z">
			</path>
		</g>
		<g transform="translate(913.25,783.25) scale(4.4633333333333)">
			<path d="M6,6H0V3c0-1.7,1.3-3,3-3h0c1.7,0,3,1.3,3,3V6z">
			</path>
		</g>
		<g transform="translate(341.25,809.25) scale(4.4633333333333)">
			<path d="M6,6H0V3c0-1.7,1.3-3,3-3l3,0V6z">
			</path>
		</g>
		<g transform="translate(367.25,809.25) scale(4.4633333333333)">
			<rect width="6" height="6">
			</rect>
		</g>
		<g transform="translate(393.25,809.25) scale(4.4633333333333)">
			<rect width="6" height="6">
			</rect>
		</g>
		<g transform="translate(419.25,809.25) scale(4.4633333333333)">
			<rect width="6" height="6">
			</rect>
		</g>
		<g transform="translate(445.25,809.25) scale(4.4633333333333)">
			<rect width="6" height="6">
			</rect>
		</g>
		<g transform="translate(523.25,809.25) scale(4.4633333333333)">
			<path d="M6,6H0V3c0-1.7,1.3-3,3-3h0c1.7,0,3,1.3,3,3V6z">
			</path>
		</g>
		<g transform="translate(601.25,809.25) scale(4.4633333333333)">
			<path d="M6,6H3C1.3,6,0,4.7,0,3V0l6,0V6z">
			</path>
		</g>
		<g transform="translate(627.25,809.25) scale(4.4633333333333)">
			<path d="M3,6H0V0l3,0c1.7,0,3,1.3,3,3v0C6,4.7,4.7,6,3,6z">
			</path>
		</g>
		<g transform="translate(705.25,809.25) scale(4.4633333333333)">
			<path d="M6,6H3C1.3,6,0,4.7,0,3V0l6,0V6z">
			</path>
		</g>
		<g transform="translate(731.25,809.25) scale(4.4633333333333)">
			<rect width="6" height="6">
			</rect>
		</g>
		<g transform="translate(835.25,809.25) scale(4.4633333333333)">
			<rect width="6" height="6">
			</rect>
		</g>
		<g transform="translate(887.25,809.25) scale(4.4633333333333)">
			<path d="M6,6H3C1.3,6,0,4.7,0,3v0c0-1.7,1.3-3,3-3h3C6,0,6,6,6,6z">
			</path>
		</g>
		<g transform="translate(913.25,809.25) scale(4.4633333333333)">
			<rect width="6" height="6">
			</rect>
		</g>
		<g transform="translate(315.25,835.25) scale(4.4633333333333)">
			<path d="M6,6H0V3c0-1.7,1.3-3,3-3l3,0V6z">
			</path>
		</g>
		<g transform="translate(341.25,835.25) scale(4.4633333333333)">
			<rect width="6" height="6">
			</rect>
		</g>
		<g transform="translate(367.25,835.25) scale(4.4633333333333)">
			<path d="M3,6H0V0l6,0v3C6,4.7,4.7,6,3,6z">
			</path>
		</g>
		<g transform="translate(445.25,835.25) scale(4.4633333333333)">
			<path d="M6,6H3C1.3,6,0,4.7,0,3V0l6,0V6z">
			</path>
		</g>
		<g transform="translate(471.25,835.25) scale(4.4633333333333)">
			<path d="M3,6H0V0l3,0c1.7,0,3,1.3,3,3v0C6,4.7,4.7,6,3,6z">
			</path>
		</g>
		<g transform="translate(523.25,835.25) scale(4.4633333333333)">
			<rect width="6" height="6">
			</rect>
		</g>
		<g transform="translate(653.25,835.25) scale(4.4633333333333)">
			<path d="M6,6H3C1.3,6,0,4.7,0,3v0c0-1.7,1.3-3,3-3h3C6,0,6,6,6,6z">
			</path>
		</g>
		<g transform="translate(679.25,835.25) scale(4.4633333333333)">
			<path d="M3,6H0V0l3,0c1.7,0,3,1.3,3,3v0C6,4.7,4.7,6,3,6z">
			</path>
		</g>
		<g transform="translate(731.25,835.25) scale(4.4633333333333)">
			<path d="M6,6H3C1.3,6,0,4.7,0,3V0l6,0V6z">
			</path>
		</g>
		<g transform="translate(757.25,835.25) scale(4.4633333333333)">
			<rect width="6" height="6">
			</rect>
		</g>
		<g transform="translate(783.25,835.25) scale(4.4633333333333)">
			<rect width="6" height="6">
			</rect>
		</g>
		<g transform="translate(809.25,835.25) scale(4.4633333333333)">
			<rect width="6" height="6">
			</rect>
		</g>
		<g transform="translate(835.25,835.25) scale(4.4633333333333)">
			<rect width="6" height="6">
			</rect>
		</g>
		<g transform="translate(913.25,835.25) scale(4.4633333333333)">
			<rect width="6" height="6">
			</rect>
		</g>
		<g transform="translate(939.25,835.25) scale(4.4633333333333)">
			<path d="M3,6H0V0l3,0c1.7,0,3,1.3,3,3v0C6,4.7,4.7,6,3,6z">
			</path>
		</g>
		<g transform="translate(315.25,861.25) scale(4.4633333333333)">
			<rect width="6" height="6">
			</rect>
		</g>
		<g transform="translate(341.25,861.25) scale(4.4633333333333)">
			<rect width="6" height="6">
			</rect>
		</g>
		<g transform="translate(393.25,861.25) scale(4.4633333333333)">
			<path d="M6,6H0V3c0-1.7,1.3-3,3-3h0c1.7,0,3,1.3,3,3V6z">
			</path>
		</g>
		<g transform="translate(523.25,861.25) scale(4.4633333333333)">
			<path d="M6,6H3C1.3,6,0,4.7,0,3V0l6,0V6z">
			</path>
		</g>
		<g transform="translate(549.25,861.25) scale(4.4633333333333)">
			<path d="M3,6H0V0l3,0c1.7,0,3,1.3,3,3v0C6,4.7,4.7,6,3,6z">
			</path>
		</g>
		<g transform="translate(601.25,861.25) scale(4.4633333333333)">
			<circle cx="3" cy="3" r="3">
			</circle>
		</g>
		<g transform="translate(705.25,861.25) scale(4.4633333333333)">
			<path d="M6,6H0V3c0-1.7,1.3-3,3-3h0c1.7,0,3,1.3,3,3V6z">
			</path>
		</g>
		<g transform="translate(835.25,861.25) scale(4.4633333333333)">
			<path d="M6,6H3C1.3,6,0,4.7,0,3V0l6,0V6z">
			</path>
		</g>
		<g transform="translate(861.25,861.25) scale(4.4633333333333)">
			<path d="M3,6H0V0l3,0c1.7,0,3,1.3,3,3v0C6,4.7,4.7,6,3,6z">
			</path>
		</g>
		<g transform="translate(913.25,861.25) scale(4.4633333333333)">
			<path d="M3,6L3,6C1.3,6,0,4.7,0,3V0h6v3C6,4.7,4.7,6,3,6z">
			</path>
		</g>
		<g transform="translate(315.25,887.25) scale(4.4633333333333)">
			<path d="M6,6H3C1.3,6,0,4.7,0,3V0l6,0V6z">
			</path>
		</g>
		<g transform="translate(341.25,887.25) scale(4.4633333333333)">
			<rect width="6" height="6">
			</rect>
		</g>
		<g transform="translate(367.25,887.25) scale(4.4633333333333)">
			<rect width="6" height="6">
			</rect>
		</g>
		<g transform="translate(393.25,887.25) scale(4.4633333333333)">
			<rect width="6" height="6">
			</rect>
		</g>
		<g transform="translate(445.25,887.25) scale(4.4633333333333)">
			<path d="M6,6H0V3c0-1.7,1.3-3,3-3l3,0V6z">
			</path>
		</g>
		<g transform="translate(471.25,887.25) scale(4.4633333333333)">
			<path d="M3,6H0V0l3,0c1.7,0,3,1.3,3,3v0C6,4.7,4.7,6,3,6z">
			</path>
		</g>
		<g transform="translate(575.25,887.25) scale(4.4633333333333)">
			<path d="M6,6H0V3c0-1.7,1.3-3,3-3h0c1.7,0,3,1.3,3,3V6z">
			</path>
		</g>
		<g transform="translate(627.25,887.25) scale(4.4633333333333)">
			<circle cx="3" cy="3" r="3">
			</circle>
		</g>
		<g transform="translate(705.25,887.25) scale(4.4633333333333)">
			<path d="M3,6L3,6C1.3,6,0,4.7,0,3V0h6v3C6,4.7,4.7,6,3,6z">
			</path>
		</g>
		<g transform="translate(757.25,887.25) scale(4.4633333333333)">
			<path d="M6,6H0V3c0-1.7,1.3-3,3-3l3,0V6z">
			</path>
		</g>
		<g transform="translate(783.25,887.25) scale(4.4633333333333)">
			<path d="M3,6H0V0l3,0c1.7,0,3,1.3,3,3v0C6,4.7,4.7,6,3,6z">
			</path>
		</g>
		<g transform="translate(341.25,913.25) scale(4.4633333333333)">
			<rect width="6" height="6">
			</rect>
		</g>
		<g transform="translate(393.25,913.25) scale(4.4633333333333)">
			<path d="M3,6L3,6C1.3,6,0,4.7,0,3V0h6v3C6,4.7,4.7,6,3,6z">
			</path>
		</g>
		<g transform="translate(445.25,913.25) scale(4.4633333333333)">
			<rect width="6" height="6">
			</rect>
		</g>
		<g transform="translate(497.25,913.25) scale(4.4633333333333)">
			<circle cx="3" cy="3" r="3">
			</circle>
		</g>
		<g transform="translate(575.25,913.25) scale(4.4633333333333)">
			<rect width="6" height="6">
			</rect>
		</g>
		<g transform="translate(601.25,913.25) scale(4.4633333333333)">
			<path d="M3,6H0V0l3,0c1.7,0,3,1.3,3,3v0C6,4.7,4.7,6,3,6z">
			</path>
		</g>
		<g transform="translate(653.25,913.25) scale(4.4633333333333)">
			<path d="M6,6H0V3c0-1.7,1.3-3,3-3l3,0V6z">
			</path>
		</g>
		<g transform="translate(679.25,913.25) scale(4.4633333333333)">
			<path d="M6,6H0V0l3,0c1.7,0,3,1.3,3,3V6z">
			</path>
		</g>
		<g transform="translate(757.25,913.25) scale(4.4633333333333)">
			<rect width="6" height="6">
			</rect>
		</g>
		<g transform="translate(809.25,913.25) scale(4.4633333333333)">
			<circle cx="3" cy="3" r="3">
			</circle>
		</g>
		<g transform="translate(861.25,913.25) scale(4.4633333333333)">
			<circle cx="3" cy="3" r="3">
			</circle>
		</g>
		<g transform="translate(341.25,939.25) scale(4.4633333333333)">
			<path d="M3,6L3,6C1.3,6,0,4.7,0,3V0h6v3C6,4.7,4.7,6,3,6z">
			</path>
		</g>
		<g transform="translate(445.25,939.25) scale(4.4633333333333)">
			<path d="M3,6L3,6C1.3,6,0,4.7,0,3V0h6v3C6,4.7,4.7,6,3,6z">
			</path>
		</g>
		<g transform="translate(523.25,939.25) scale(4.4633333333333)">
			<circle cx="3" cy="3" r="3">
			</circle>
		</g>
		<g transform="translate(575.25,939.25) scale(4.4633333333333)">
			<path d="M3,6L3,6C1.3,6,0,4.7,0,3V0h6v3C6,4.7,4.7,6,3,6z">
			</path>
		</g>
		<g transform="translate(627.25,939.25) scale(4.4633333333333)">
			<path d="M6,6H3C1.3,6,0,4.7,0,3v0c0-1.7,1.3-3,3-3h3C6,0,6,6,6,6z">
			</path>
		</g>
		<g transform="translate(653.25,939.25) scale(4.4633333333333)">
			<rect width="6" height="6">
			</rect>
		</g>
		<g transform="translate(679.25,939.25) scale(4.4633333333333)">
			<path d="M3,6H0V0l6,0v3C6,4.7,4.7,6,3,6z">
			</path>
		</g>
		<g transform="translate(731.25,939.25) scale(4.4633333333333)">
			<path d="M6,6H3C1.3,6,0,4.7,0,3v0c0-1.7,1.3-3,3-3h3C6,0,6,6,6,6z">
			</path>
		</g>
		<g transform="translate(757.25,939.25) scale(4.4633333333333)">
			<path d="M3,6H0V0l6,0v3C6,4.7,4.7,6,3,6z">
			</path>
		</g>
		<g transform="translate(887.25,939.25) scale(4.4633333333333)">
			<path d="M6,6H3C1.3,6,0,4.7,0,3v0c0-1.7,1.3-3,3-3h3C6,0,6,6,6,6z">
			</path>
		</g>
		<g transform="translate(913.25,939.25) scale(4.4633333333333)">
			<path d="M3,6H0V0l3,0c1.7,0,3,1.3,3,3v0C6,4.7,4.7,6,3,6z">
			</path>
		</g>
	</g>
	<g transform="translate(0,153)">
		<g transform="translate(107.25,107.25)" fill="#000000">
			<g transform="scale(13)">
				<path d="M4.5,14h5.1C12,14,14,12,14,9.6V4.5C14,2,12,0,9.5,0H4.4C2,0,0,2,0,4.4v5.1C0,12,2,14,4.5,14z M12,4.8v4.4 c0,1.5-1.3,2.8-2.8,2.8H4.8C3.2,12,2,10.8,2,9.2V4.8C2,3.3,3.3,2,4.8,2h4.4C10.8,2,12,3.2,12,4.8z">
				</path>
			</g>
		</g>
		<g transform="translate(783.25,107.25)" fill="#000000">
			<g transform="scale(13)">
				<path d="M4.5,14h5.1C12,14,14,12,14,9.6V4.5C14,2,12,0,9.5,0H4.4C2,0,0,2,0,4.4v5.1C0,12,2,14,4.5,14z M12,4.8v4.4 c0,1.5-1.3,2.8-2.8,2.8H4.8C3.2,12,2,10.8,2,9.2V4.8C2,3.3,3.3,2,4.8,2h4.4C10.8,2,12,3.2,12,4.8z">
				</path>
			</g>
		</g>
		<g transform="translate(107.25,783.25)" fill="#000000">
			<g transform="scale(13)">
				<path d="M4.5,14h5.1C12,14,14,12,14,9.6V4.5C14,2,12,0,9.5,0H4.4C2,0,0,2,0,4.4v5.1C0,12,2,14,4.5,14z M12,4.8v4.4 c0,1.5-1.3,2.8-2.8,2.8H4.8C3.2,12,2,10.8,2,9.2V4.8C2,3.3,3.3,2,4.8,2h4.4C10.8,2,12,3.2,12,4.8z">
				</path>
			</g>
		</g>
		<g transform="translate(159.25,159.25)" fill="#000000">
			<g transform="scale(13)">
				<rect width="6" height="6">
				</rect>
			</g>
		</g>
		<g transform="translate(835.25,159.25)" fill="#000000">
			<g transform="scale(13)">
				<rect width="6" height="6">
				</rect>
			</g>
		</g>
		<g transform="translate(159.25,835.25)" fill="#000000">
			<g transform="scale(13)">
				<rect width="6" height="6">
				</rect>
			</g>
		</g>
	</g>
	<text fill="#FFFFFF" font-family="Arial, Helvetica, sans-serif" font-size="130px" text-anchor="middle" x="536.25" y="202.40625" transform="translate(0,1181.984375)">
		WEBSITE
	</text>
</svg>
